<svg width="1712" height="228" viewBox="0 0 1712 228" fill="none" xmlns="http://www.w3.org/2000/svg">
<path d="M35.173 220.413C34.9613 222.451 33.2436 224 31.1944 224H4.90039C2.69125 224 0.900391 222.209 0.900391 220V4.79981C0.900391 2.59067 2.69125 0.799805 4.90039 0.799805H33.5004C35.7095 0.799805 37.5004 2.59067 37.5004 4.7998V82.3376C37.5004 86.4394 43.876 88.4735 46.9517 85.7597C50.3119 82.7949 54.1615 80.2749 58.5004 78.1998C67.7004 73.5998 78.0004 71.2998 89.4004 71.2998C103.6 71.2998 115.7 74.6998 125.7 81.4998C135.9 88.0998 143.7 97.3998 149.1 109.4C154.7 121.4 157.5 135.3 157.5 151.1C157.5 166.1 154.6 179.4 148.8 191C143 202.6 134.8 211.7 124.2 218.3C113.6 224.7 101.2 227.9 87.0004 227.9C76.0004 227.9 66.0004 225.5 57.0004 220.7C52.3656 218.172 48.341 215.144 44.9268 211.618C42.1711 208.771 36.2397 210.146 35.8303 214.087L35.173 220.413ZM37.8004 149.3C37.8004 158.1 39.5004 166 42.9004 173C46.3004 179.8 51.1004 185.1 57.3004 188.9C63.7004 192.5 71.1004 194.3 79.5004 194.3C88.1004 194.3 95.5004 192.4 101.7 188.6C107.9 184.8 112.6 179.5 115.8 172.7C119 165.9 120.6 158.1 120.6 149.3C120.6 140.5 119 132.7 115.8 125.9C112.6 119.1 107.9 113.8 101.7 110C95.5004 106 88.1004 104 79.5004 104C71.1004 104 63.7004 106 57.3004 110C51.1004 113.8 46.3004 119.1 42.9004 125.9C39.5004 132.5 37.8004 140.3 37.8004 149.3Z" fill="#171717"/>
<path d="M252.943 227.9C238.343 227.9 225.343 224.6 213.943 218C202.743 211.2 193.943 202 187.543 190.4C181.143 178.6 177.943 165.1 177.943 149.9C177.943 134.5 181.043 120.9 187.243 109.1C193.443 97.2998 202.143 88.0998 213.343 81.4998C224.543 74.6998 237.343 71.2998 251.743 71.2998C266.743 71.2998 279.643 74.4998 290.443 80.8998C301.243 87.0998 309.543 95.7998 315.343 107C321.343 118.2 324.343 131.6 324.343 147.2V154.309C324.343 156.515 322.557 158.304 320.352 158.309L201.256 158.59C199.003 158.595 197.19 156.74 197.248 154.488L197.643 139.097C197.698 136.929 199.472 135.2 201.641 135.2H284.043C286.252 135.2 288.066 133.404 287.865 131.204C287.098 122.836 283.857 115.968 278.143 110.6C271.743 104.4 263.043 101.3 252.043 101.3C243.443 101.3 236.143 103.1 230.143 106.7C224.343 110.3 219.943 115.7 216.943 122.9C213.943 130.1 212.443 138.9 212.443 149.3C212.443 165.3 215.843 177.4 222.643 185.6C229.643 193.8 239.943 197.9 253.543 197.9C263.543 197.9 271.743 196 278.143 192.2C283.816 188.933 287.79 184.484 290.064 178.853C290.733 177.197 292.274 176 294.06 176H320.075C322.595 176 324.495 178.307 323.842 180.741C320.1 194.698 312.466 205.817 300.943 214.1C288.343 223.3 272.343 227.9 252.943 227.9Z" fill="#171717"/>
<path d="M390.535 220C390.535 222.209 388.744 224 386.535 224H358.235C356.026 224 354.235 222.209 354.235 220V4.79981C354.235 2.59067 356.026 0.799805 358.235 0.799805H386.535C388.744 0.799805 390.535 2.59067 390.535 4.7998V220Z" fill="#171717"/>
<path d="M420.228 149.6C420.228 134.2 423.628 120.7 430.428 109.1C437.228 97.2998 446.628 88.0998 458.628 81.4998C470.628 74.8998 484.228 71.5998 499.428 71.5998C514.828 71.5998 528.428 74.8998 540.228 81.4998C552.228 88.0998 561.628 97.2998 568.428 109.1C575.228 120.7 578.628 134.2 578.628 149.6C578.628 165 575.228 178.6 568.428 190.4C561.628 202 552.228 211.1 540.228 217.7C528.428 224.3 514.828 227.6 499.428 227.6C484.228 227.6 470.628 224.3 458.628 217.7C446.628 211.1 437.228 202 430.428 190.4C423.628 178.6 420.228 165 420.228 149.6ZM456.828 149.6C456.828 158.6 458.628 166.5 462.228 173.3C466.028 180.1 471.028 185.4 477.228 189.2C483.628 193 491.028 194.9 499.428 194.9C507.828 194.9 515.228 193 521.628 189.2C528.028 185.4 533.028 180.1 536.628 173.3C540.228 166.5 542.028 158.6 542.028 149.6C542.028 140.4 540.228 132.5 536.628 125.9C533.028 119.1 528.028 113.8 521.628 110C515.228 106.2 507.828 104.3 499.428 104.3C491.028 104.3 483.628 106.2 477.228 110C471.028 113.8 466.028 119.1 462.228 125.9C458.628 132.5 456.828 140.4 456.828 149.6Z" fill="#171717"/>
<path d="M636.216 224C634.482 224 632.945 222.882 632.411 221.232L587.002 81.0323C586.165 78.4486 588.092 75.7998 590.808 75.7998H620.45C622.208 75.7998 623.759 76.947 624.274 78.6273L642.907 139.4C644.507 145.2 646.107 151.3 647.707 157.7C648.271 159.955 648.81 162.248 649.324 164.578C649.933 167.335 654.054 167.369 654.607 164.6V164.6C655.607 160.6 656.707 156.7 657.907 152.9C659.107 148.9 660.507 144.4 662.107 139.4L681.616 78.5781C682.147 76.9227 683.687 75.7998 685.425 75.7998H716.763C718.514 75.7998 720.062 76.9388 720.583 78.6108L739.507 139.4C739.907 140.8 740.507 143.2 741.307 146.6C742.307 149.8 743.307 153.3 744.307 157.1C745.307 160.9 746.207 164.7 747.007 168.5V168.5C747.525 170.361 750.769 170.376 751.223 168.498C751.504 167.332 751.799 166.132 752.107 164.9C753.307 160.1 754.507 155.5 755.707 151.1C757.107 146.5 758.207 142.6 759.007 139.4L777.932 78.6108C778.453 76.9388 780 75.7998 781.752 75.7998H811.89C814.64 75.7998 816.569 78.5099 815.67 81.1082L767.139 221.308C766.581 222.919 765.064 224 763.359 224H734.934C733.191 224 731.649 222.872 731.121 221.211L711.607 159.8C708.607 150 706.207 141.7 704.407 134.9C704.253 134.299 704.103 133.71 703.957 133.133C703.292 130.495 698.208 130.471 697.507 133.1V133.1C695.907 139.1 693.207 148.2 689.407 160.4L669.899 221.222C669.368 222.877 667.828 224 666.09 224H636.216Z" fill="#171717"/>
<path d="M826.17 82.7998C826.17 80.5907 827.961 78.7998 830.17 78.7998H900.77C902.979 78.7998 904.77 80.5907 904.77 82.7998V92.1998C904.77 94.4089 902.979 96.1998 900.77 96.1998H830.17C827.961 96.1998 826.17 94.4089 826.17 92.1998V82.7998ZM875.67 220C875.67 222.209 873.879 224 871.67 224H859.27C857.061 224 855.27 222.209 855.27 220V36.8998C855.27 34.6907 857.061 32.8998 859.27 32.8998H871.67C873.879 32.8998 875.67 34.6907 875.67 36.8998V220Z" fill="#171717"/>
<path d="M952.425 219.7C952.425 221.909 950.635 223.7 948.425 223.7H935.725C933.516 223.7 931.725 221.909 931.725 219.7V9.2998C931.725 7.09066 933.516 5.2998 935.725 5.2998H948.425C950.635 5.2998 952.425 7.09066 952.425 9.2998V87.713C952.425 91.895 959.055 93.8671 962.023 90.9212C965.035 87.9313 968.436 85.2909 972.225 82.9998C981.025 77.5998 991.525 74.8998 1003.73 74.8998C1022.93 74.8998 1036.93 80.3998 1045.73 91.3998C1054.53 102.4 1058.93 117 1058.93 135.2V220C1058.93 222.209 1057.13 224 1054.93 224H1042.23C1040.02 224 1038.23 222.209 1038.23 220V139.7C1038.23 128.3 1036.63 119.3 1033.43 112.7C1030.23 105.9 1025.73 101.1 1019.93 98.2998C1014.13 95.2998 1007.43 93.7998 999.825 93.7998C989.425 93.7998 980.725 96.0998 973.725 100.7C966.725 105.3 961.425 111.5 957.825 119.3C954.225 126.9 952.425 135.4 952.425 144.8V219.7Z" fill="#171717"/>
<path d="M1161.08 227.6C1147.08 227.6 1134.68 224.4 1123.88 218C1113.28 211.6 1104.98 202.7 1098.98 191.3C1092.98 179.9 1089.98 166.6 1089.98 151.4C1089.98 136.4 1092.88 123.2 1098.68 111.8C1104.68 100.2 1112.88 91.1998 1123.28 84.7998C1133.68 78.1998 1145.78 74.8998 1159.58 74.8998C1172.78 74.8998 1184.28 77.7998 1194.08 83.5998C1204.08 89.3998 1211.78 97.4998 1217.18 107.9C1222.78 118.1 1225.58 130.1 1225.58 143.9V150.1C1225.58 152.309 1223.79 154.1 1221.58 154.1H1105.55C1103.27 154.1 1101.46 152.21 1101.55 149.94L1101.83 142.94C1101.91 140.795 1103.68 139.1 1105.83 139.1H1200.88C1203.09 139.1 1204.9 137.307 1204.76 135.101C1204.03 122.951 1199.87 113.084 1192.28 105.5C1184.08 96.8998 1173.18 92.5998 1159.58 92.5998C1149.58 92.5998 1140.78 94.8998 1133.18 99.4998C1125.78 104.1 1120.08 110.7 1116.08 119.3C1112.08 127.7 1110.08 137.7 1110.08 149.3C1110.08 168.5 1114.48 183.4 1123.28 194C1132.28 204.6 1144.98 209.9 1161.38 209.9C1173.18 209.9 1182.88 207.4 1190.48 202.4C1197.29 197.921 1202.09 191.597 1204.89 183.427C1205.47 181.718 1207.04 180.5 1208.84 180.5H1220.46C1223.06 180.5 1224.98 182.95 1224.18 185.429C1220.1 198.253 1213.16 208.31 1203.38 215.6C1192.38 223.6 1178.28 227.6 1161.08 227.6Z" fill="#171717"/>
<path d="M1242.48 82.7998C1242.48 80.5907 1244.27 78.7998 1246.48 78.7998H1315.58C1317.79 78.7998 1319.58 80.5907 1319.58 82.7998V92.1998C1319.58 94.4089 1317.79 96.1998 1315.58 96.1998H1246.48C1244.27 96.1998 1242.48 94.4089 1242.48 92.1998V82.7998ZM1317.42 6.02143C1319.37 6.25488 1320.78 7.93295 1320.78 9.8883V20.1998C1320.78 22.4089 1318.99 24.1998 1316.78 24.1998C1316.33 24.1998 1315.86 24.1998 1315.38 24.1998C1313.18 24.1998 1310.88 24.1998 1308.48 24.1998C1299.28 24.1998 1293.08 26.4998 1289.88 31.0998C1286.88 35.4998 1285.38 41.9998 1285.38 50.5998V220C1285.38 222.209 1283.59 224 1281.38 224H1268.68C1266.47 224 1264.68 222.209 1264.68 220V50.5998C1264.68 39.7998 1266.48 31.0998 1270.08 24.4998C1273.68 17.6998 1278.48 12.7998 1284.48 9.7998C1290.68 6.7998 1297.48 5.2998 1304.88 5.2998C1307.48 5.2998 1310.18 5.3998 1312.98 5.5998C1314.52 5.70999 1316 5.85053 1317.42 6.02143Z" fill="#171717"/>
<path d="M1333.15 151.4C1333.15 136.4 1336.35 123.2 1342.75 111.8C1349.15 100.4 1357.95 91.3998 1369.15 84.7998C1380.35 78.1998 1392.95 74.8998 1406.95 74.8998C1421.15 74.8998 1433.75 78.1998 1444.75 84.7998C1455.95 91.3998 1464.75 100.4 1471.15 111.8C1477.55 123.2 1480.75 136.4 1480.75 151.4C1480.75 166 1477.55 179.1 1471.15 190.7C1464.75 202.1 1455.95 211.1 1444.75 217.7C1433.75 224.3 1421.15 227.6 1406.95 227.6C1392.95 227.6 1380.35 224.3 1369.15 217.7C1357.95 211.1 1349.15 202.1 1342.75 190.7C1336.35 179.1 1333.15 166 1333.15 151.4ZM1354.15 151.1C1354.15 162.5 1356.35 172.6 1360.75 181.4C1365.35 190 1371.55 196.8 1379.35 201.8C1387.35 206.6 1396.55 209 1406.95 209C1417.35 209 1426.45 206.6 1434.25 201.8C1442.25 196.8 1448.45 190 1452.85 181.4C1457.45 172.6 1459.75 162.5 1459.75 151.1C1459.75 139.9 1457.45 130 1452.85 121.4C1448.45 112.8 1442.25 106 1434.25 101C1426.45 95.9998 1417.35 93.4998 1406.95 93.4998C1396.55 93.4998 1387.35 95.9998 1379.35 101C1371.55 106 1365.35 112.8 1360.75 121.4C1356.35 130 1354.15 139.9 1354.15 151.1Z" fill="#171717"/>
<path d="M1535.45 220C1535.45 222.209 1533.66 224 1531.45 224H1518.75C1516.55 224 1514.75 222.209 1514.75 220V9.29979C1514.75 7.09066 1516.55 5.2998 1518.75 5.2998H1531.45C1533.66 5.2998 1535.45 7.09066 1535.45 9.2998V220Z" fill="#171717"/>
<path d="M1636.48 227.6C1622.48 227.6 1610.48 224.3 1600.48 217.7C1590.48 211.1 1582.78 202.1 1577.38 190.7C1571.98 179.1 1569.28 166.1 1569.28 151.7C1569.28 137.1 1571.98 124 1577.38 112.4C1582.78 100.8 1590.48 91.6998 1600.48 85.0998C1610.68 78.2998 1622.98 74.8998 1637.38 74.8998C1649.38 74.8998 1659.98 77.4998 1669.18 82.6998C1673.53 85.1091 1677.42 88.0981 1680.83 91.6666C1683.78 94.754 1690.78 92.8145 1690.78 88.5438V9.29979C1690.78 7.09066 1692.57 5.2998 1694.78 5.2998H1707.48C1709.69 5.2998 1711.48 7.09066 1711.48 9.2998V220C1711.48 222.209 1709.69 224 1707.48 224H1697.21C1695.11 224 1693.36 222.376 1693.22 220.282L1692.47 209.756C1692.18 205.635 1685.86 204.243 1683.25 207.444C1679.25 212.342 1674.56 216.361 1669.18 219.5C1659.58 224.9 1648.68 227.6 1636.48 227.6ZM1640.08 208.7C1650.88 208.7 1659.98 206.3 1667.38 201.5C1674.78 196.5 1680.48 189.7 1684.48 181.1C1688.48 172.3 1690.48 162.3 1690.48 151.1C1690.48 139.9 1688.48 130 1684.48 121.4C1680.48 112.8 1674.78 106 1667.38 101C1659.98 95.9998 1650.88 93.4998 1640.08 93.4998C1629.68 93.4998 1620.68 95.9998 1613.08 101C1605.68 106 1599.98 112.8 1595.98 121.4C1592.18 130 1590.28 139.9 1590.28 151.1C1590.28 162.3 1592.18 172.3 1595.98 181.1C1599.98 189.7 1605.68 196.5 1613.08 201.5C1620.68 206.3 1629.68 208.7 1640.08 208.7Z" fill="#171717"/>
</svg>
