<svg width="1711" height="228" viewBox="0 0 1711 228" fill="none" xmlns="http://www.w3.org/2000/svg">
<path d="M34.2726 219.613C34.0609 221.652 32.3432 223.2 30.2941 223.2H4C1.79086 223.2 0 221.409 0 219.2V4C0 1.79086 1.79086 0 4 0H32.6C34.8091 0 36.6 1.79086 36.6 4V81.5378C36.6 85.6396 42.9756 87.6737 46.0513 84.9599C49.4116 81.9951 53.2611 79.4751 57.6 77.4C66.8 72.8 77.1 70.5 88.5 70.5C102.7 70.5 114.8 73.9 124.8 80.7C135 87.3 142.8 96.6 148.2 108.6C153.8 120.6 156.6 134.5 156.6 150.3C156.6 165.3 153.7 178.6 147.9 190.2C142.1 201.8 133.9 210.9 123.3 217.5C112.7 223.9 100.3 227.1 86.1 227.1C75.1 227.1 65.1 224.7 56.1 219.9C51.4652 217.372 47.4406 214.345 44.0264 210.818C41.2708 207.971 35.3393 209.347 34.9299 213.287L34.2726 219.613ZM36.9 148.5C36.9 157.3 38.6 165.2 42 172.2C45.4 179 50.2 184.3 56.4 188.1C62.8 191.7 70.2 193.5 78.6 193.5C87.2 193.5 94.6 191.6 100.8 187.8C107 184 111.7 178.7 114.9 171.9C118.1 165.1 119.7 157.3 119.7 148.5C119.7 139.7 118.1 131.9 114.9 125.1C111.7 118.3 107 113 100.8 109.2C94.6 105.2 87.2 103.2 78.6 103.2C70.2 103.2 62.8 105.2 56.4 109.2C50.2 113 45.4 118.3 42 125.1C38.6 131.7 36.9 139.5 36.9 148.5Z" fill="white"/>
<path d="M252.042 227.1C237.442 227.1 224.442 223.8 213.042 217.2C201.842 210.4 193.042 201.2 186.642 189.6C180.242 177.8 177.042 164.3 177.042 149.1C177.042 133.7 180.142 120.1 186.342 108.3C192.542 96.5 201.242 87.3 212.442 80.7C223.642 73.9 236.442 70.5 250.842 70.5C265.842 70.5 278.742 73.7 289.542 80.1C300.342 86.3 308.642 95 314.442 106.2C320.442 117.4 323.442 130.8 323.442 146.4V153.509C323.442 155.715 321.657 157.504 319.452 157.509L200.356 157.79C198.103 157.796 196.29 155.94 196.348 153.688L196.742 138.297C196.798 136.129 198.572 134.4 200.741 134.4H283.142C285.351 134.4 287.166 132.604 286.964 130.404C286.198 122.037 282.957 115.169 277.242 109.8C270.842 103.6 262.142 100.5 251.142 100.5C242.542 100.5 235.242 102.3 229.242 105.9C223.442 109.5 219.042 114.9 216.042 122.1C213.042 129.3 211.542 138.1 211.542 148.5C211.542 164.5 214.942 176.6 221.742 184.8C228.742 193 239.042 197.1 252.642 197.1C262.642 197.1 270.842 195.2 277.242 191.4C282.916 188.133 286.89 183.685 289.164 178.053C289.833 176.397 291.373 175.2 293.159 175.2H319.175C321.695 175.2 323.595 177.507 322.942 179.942C319.199 193.898 311.566 205.017 300.042 213.3C287.442 222.5 271.442 227.1 252.042 227.1Z" fill="white"/>
<path d="M389.634 219.2C389.634 221.409 387.844 223.2 385.634 223.2H357.334C355.125 223.2 353.334 221.409 353.334 219.2V4C353.334 1.79086 355.125 0 357.334 0H385.634C387.844 0 389.634 1.79086 389.634 4V219.2Z" fill="white"/>
<path d="M419.327 148.8C419.327 133.4 422.727 119.9 429.527 108.3C436.327 96.5 445.727 87.3 457.727 80.7C469.727 74.1 483.327 70.8 498.527 70.8C513.927 70.8 527.527 74.1 539.327 80.7C551.327 87.3 560.727 96.5 567.527 108.3C574.327 119.9 577.727 133.4 577.727 148.8C577.727 164.2 574.327 177.8 567.527 189.6C560.727 201.2 551.327 210.3 539.327 216.9C527.527 223.5 513.927 226.8 498.527 226.8C483.327 226.8 469.727 223.5 457.727 216.9C445.727 210.3 436.327 201.2 429.527 189.6C422.727 177.8 419.327 164.2 419.327 148.8ZM455.927 148.8C455.927 157.8 457.727 165.7 461.327 172.5C465.127 179.3 470.127 184.6 476.327 188.4C482.727 192.2 490.127 194.1 498.527 194.1C506.927 194.1 514.327 192.2 520.727 188.4C527.127 184.6 532.127 179.3 535.727 172.5C539.327 165.7 541.127 157.8 541.127 148.8C541.127 139.6 539.327 131.7 535.727 125.1C532.127 118.3 527.127 113 520.727 109.2C514.327 105.4 506.927 103.5 498.527 103.5C490.127 103.5 482.727 105.4 476.327 109.2C470.127 113 465.127 118.3 461.327 125.1C457.727 131.7 455.927 139.6 455.927 148.8Z" fill="white"/>
<path d="M635.316 223.2C633.582 223.2 632.045 222.082 631.511 220.433L586.102 80.2325C585.265 77.6488 587.191 75 589.907 75H619.55C621.307 75 622.859 76.1472 623.374 77.8275L642.007 138.6C643.607 144.4 645.207 150.5 646.807 156.9C647.371 159.155 647.91 161.448 648.424 163.778C649.032 166.535 653.153 166.569 653.707 163.8V163.8C654.707 159.8 655.807 155.9 657.007 152.1C658.207 148.1 659.607 143.6 661.207 138.6L680.716 77.7783C681.247 76.1229 682.786 75 684.525 75H715.863C717.614 75 719.162 76.139 719.682 77.811L738.607 138.6C739.007 140 739.607 142.4 740.407 145.8C741.407 149 742.407 152.5 743.407 156.3C744.407 160.1 745.307 163.9 746.107 167.7V167.7C746.624 169.562 749.869 169.577 750.322 167.699C750.604 166.532 750.899 165.333 751.207 164.1C752.407 159.3 753.607 154.7 754.807 150.3C756.207 145.7 757.307 141.8 758.107 138.6L777.032 77.811C777.552 76.139 779.1 75 780.851 75H810.99C813.739 75 815.669 77.7101 814.77 80.3084L766.239 220.508C765.681 222.119 764.164 223.2 762.459 223.2H734.033C732.291 223.2 730.749 222.072 730.221 220.411L710.707 159C707.707 149.2 705.307 140.9 703.507 134.1C703.353 133.499 703.203 132.91 703.057 132.333C702.391 129.695 697.308 129.671 696.607 132.3V132.3C695.007 138.3 692.307 147.4 688.507 159.6L668.998 220.422C668.467 222.077 666.928 223.2 665.189 223.2H635.316Z" fill="white"/>
<path d="M825.27 82C825.27 79.7909 827.06 78 829.27 78H899.87C902.079 78 903.87 79.7909 903.87 82V91.4C903.87 93.6091 902.079 95.4 899.87 95.4H829.27C827.06 95.4 825.27 93.6091 825.27 91.4V82ZM874.77 219.2C874.77 221.409 872.979 223.2 870.77 223.2H858.37C856.16 223.2 854.37 221.409 854.37 219.2V36.1C854.37 33.8909 856.16 32.1 858.37 32.1H870.77C872.979 32.1 874.77 33.8909 874.77 36.1V219.2Z" fill="white"/>
<path d="M951.525 218.9C951.525 221.109 949.734 222.9 947.525 222.9H934.825C932.616 222.9 930.825 221.109 930.825 218.9V8.5C930.825 6.29086 932.616 4.5 934.825 4.5H947.525C949.734 4.5 951.525 6.29086 951.525 8.5V86.9132C951.525 91.0952 958.154 93.0673 961.123 90.1214C964.135 87.1315 967.536 84.4911 971.325 82.2C980.125 76.8 990.625 74.1 1002.83 74.1C1022.03 74.1 1036.02 79.6 1044.82 90.6C1053.62 101.6 1058.03 116.2 1058.03 134.4V219.2C1058.03 221.409 1056.23 223.2 1054.03 223.2H1041.32C1039.12 223.2 1037.32 221.409 1037.32 219.2V138.9C1037.32 127.5 1035.73 118.5 1032.53 111.9C1029.33 105.1 1024.83 100.3 1019.03 97.5C1013.23 94.5 1006.52 93 998.925 93C988.525 93 979.825 95.3 972.825 99.9C965.825 104.5 960.525 110.7 956.925 118.5C953.325 126.1 951.525 134.6 951.525 144V218.9Z" fill="white"/>
<path d="M1160.18 226.8C1146.18 226.8 1133.78 223.6 1122.98 217.2C1112.38 210.8 1104.08 201.9 1098.08 190.5C1092.08 179.1 1089.08 165.8 1089.08 150.6C1089.08 135.6 1091.98 122.4 1097.78 111C1103.78 99.4 1111.98 90.4 1122.38 84C1132.78 77.4 1144.88 74.1 1158.68 74.1C1171.88 74.1 1183.38 77 1193.18 82.8C1203.18 88.6 1210.88 96.7 1216.28 107.1C1221.88 117.3 1224.68 129.3 1224.68 143.1V149.3C1224.68 151.509 1222.89 153.3 1220.68 153.3H1104.65C1102.37 153.3 1100.56 151.41 1100.65 149.14L1100.93 142.14C1101.01 139.995 1102.78 138.3 1104.93 138.3H1199.98C1202.19 138.3 1204 136.507 1203.86 134.302C1203.13 122.152 1198.97 112.284 1191.38 104.7C1183.18 96.1 1172.28 91.8 1158.68 91.8C1148.68 91.8 1139.88 94.1 1132.28 98.7C1124.88 103.3 1119.18 109.9 1115.18 118.5C1111.18 126.9 1109.18 136.9 1109.18 148.5C1109.18 167.7 1113.58 182.6 1122.38 193.2C1131.38 203.8 1144.08 209.1 1160.48 209.1C1172.28 209.1 1181.98 206.6 1189.58 201.6C1196.39 197.121 1201.19 190.797 1203.99 182.627C1204.57 180.918 1206.14 179.7 1207.94 179.7H1219.56C1222.16 179.7 1224.07 182.15 1223.28 184.63C1219.2 197.453 1212.26 207.51 1202.48 214.8C1191.48 222.8 1177.38 226.8 1160.18 226.8Z" fill="white"/>
<path d="M1241.58 82C1241.58 79.7909 1243.37 78 1245.58 78H1314.68C1316.89 78 1318.68 79.7909 1318.68 82V91.4C1318.68 93.6091 1316.89 95.4 1314.68 95.4H1245.58C1243.37 95.4 1241.58 93.6091 1241.58 91.4V82ZM1316.52 5.22163C1318.47 5.45507 1319.88 7.13314 1319.88 9.0885V19.4C1319.88 21.6091 1318.09 23.4 1315.88 23.4C1315.43 23.4 1314.96 23.4 1314.48 23.4C1312.28 23.4 1309.98 23.4 1307.58 23.4C1298.38 23.4 1292.18 25.7 1288.98 30.3C1285.98 34.7 1284.48 41.2 1284.48 49.8V219.2C1284.48 221.409 1282.69 223.2 1280.48 223.2H1267.78C1265.57 223.2 1263.78 221.409 1263.78 219.2V49.8C1263.78 39 1265.58 30.3 1269.18 23.7C1272.78 16.9 1277.58 12 1283.58 8.99999C1289.78 5.99999 1296.58 4.5 1303.98 4.5C1306.58 4.5 1309.28 4.59999 1312.08 4.79999C1313.62 4.91018 1315.1 5.05073 1316.52 5.22163Z" fill="white"/>
<path d="M1332.25 150.6C1332.25 135.6 1335.45 122.4 1341.85 111C1348.25 99.6 1357.05 90.6 1368.25 84C1379.45 77.4 1392.05 74.1 1406.05 74.1C1420.25 74.1 1432.85 77.4 1443.85 84C1455.05 90.6 1463.85 99.6 1470.25 111C1476.65 122.4 1479.85 135.6 1479.85 150.6C1479.85 165.2 1476.65 178.3 1470.25 189.9C1463.85 201.3 1455.05 210.3 1443.85 216.9C1432.85 223.5 1420.25 226.8 1406.05 226.8C1392.05 226.8 1379.45 223.5 1368.25 216.9C1357.05 210.3 1348.25 201.3 1341.85 189.9C1335.45 178.3 1332.25 165.2 1332.25 150.6ZM1353.25 150.3C1353.25 161.7 1355.45 171.8 1359.85 180.6C1364.45 189.2 1370.65 196 1378.45 201C1386.45 205.8 1395.65 208.2 1406.05 208.2C1416.45 208.2 1425.55 205.8 1433.35 201C1441.35 196 1447.55 189.2 1451.95 180.6C1456.55 171.8 1458.85 161.7 1458.85 150.3C1458.85 139.1 1456.55 129.2 1451.95 120.6C1447.55 112 1441.35 105.2 1433.35 100.2C1425.55 95.2 1416.45 92.7 1406.05 92.7C1395.65 92.7 1386.45 95.2 1378.45 100.2C1370.65 105.2 1364.45 112 1359.85 120.6C1355.45 129.2 1353.25 139.1 1353.25 150.3Z" fill="white"/>
<path d="M1534.55 219.2C1534.55 221.409 1532.76 223.2 1530.55 223.2H1517.85C1515.64 223.2 1513.85 221.409 1513.85 219.2V8.49999C1513.85 6.29085 1515.64 4.5 1517.85 4.5H1530.55C1532.76 4.5 1534.55 6.29086 1534.55 8.5V219.2Z" fill="white"/>
<path d="M1635.58 226.8C1621.58 226.8 1609.58 223.5 1599.58 216.9C1589.58 210.3 1581.88 201.3 1576.48 189.9C1571.08 178.3 1568.38 165.3 1568.38 150.9C1568.38 136.3 1571.08 123.2 1576.48 111.6C1581.88 100 1589.58 90.9 1599.58 84.3C1609.78 77.5 1622.08 74.1 1636.48 74.1C1648.48 74.1 1659.08 76.7 1668.28 81.9C1672.63 84.3093 1676.52 87.2982 1679.93 90.8668C1682.88 93.9542 1689.88 92.0147 1689.88 87.7439V8.49999C1689.88 6.29085 1691.67 4.5 1693.88 4.5H1706.58C1708.79 4.5 1710.58 6.29086 1710.58 8.5V219.2C1710.58 221.409 1708.79 223.2 1706.58 223.2H1696.31C1694.21 223.2 1692.46 221.577 1692.32 219.482L1691.57 208.957C1691.28 204.835 1684.96 203.443 1682.35 206.644C1678.35 211.542 1673.66 215.561 1668.28 218.7C1658.68 224.1 1647.78 226.8 1635.58 226.8ZM1639.18 207.9C1649.98 207.9 1659.08 205.5 1666.48 200.7C1673.88 195.7 1679.58 188.9 1683.58 180.3C1687.58 171.5 1689.58 161.5 1689.58 150.3C1689.58 139.1 1687.58 129.2 1683.58 120.6C1679.58 112 1673.88 105.2 1666.48 100.2C1659.08 95.2 1649.98 92.7 1639.18 92.7C1628.78 92.7 1619.78 95.2 1612.18 100.2C1604.78 105.2 1599.08 112 1595.08 120.6C1591.28 129.2 1589.38 139.1 1589.38 150.3C1589.38 161.5 1591.28 171.5 1595.08 180.3C1599.08 188.9 1604.78 195.7 1612.18 200.7C1619.78 205.5 1628.78 207.9 1639.18 207.9Z" fill="white"/>
</svg>
