<svg width="513" height="513" viewBox="0 0 513 513" fill="none" xmlns="http://www.w3.org/2000/svg">
<path d="M512.5 256.5C512.5 397.885 397.885 512.5 256.5 512.5C115.115 512.5 0.5 397.885 0.5 256.5C0.5 115.115 115.115 0.5 256.5 0.5C397.885 0.5 512.5 115.115 512.5 256.5Z" fill="#E2D0F5"/>
<path d="M205.408 411.911C205.092 414.954 202.528 417.265 199.469 417.265H160.22C156.922 417.265 154.249 414.592 154.249 411.294V90.0627C154.249 86.7651 156.922 84.0918 160.22 84.0918H202.911C206.209 84.0918 208.882 86.765 208.882 90.0626V205.804C208.882 211.927 218.399 214.963 222.99 210.912C228.006 206.487 233.752 202.725 240.229 199.628C253.962 192.761 269.337 189.328 286.354 189.328C307.55 189.328 325.612 194.403 340.539 204.554C355.765 214.405 367.408 228.288 375.469 246.2C383.828 264.113 388.008 284.861 388.008 308.446C388.008 330.837 383.679 350.69 375.021 368.005C366.363 385.321 354.123 398.905 338.3 408.757C322.478 418.31 303.968 423.087 282.771 423.087C266.352 423.087 251.425 419.504 237.99 412.339C231.072 408.565 225.064 404.046 219.968 398.782C215.854 394.533 207 396.586 206.389 402.468L205.408 411.911ZM209.33 305.759C209.33 318.895 211.868 330.688 216.943 341.137C222.018 351.287 229.183 359.198 238.438 364.871C247.991 370.245 259.037 372.931 271.576 372.931C284.413 372.931 295.46 370.095 304.714 364.423C313.969 358.751 320.985 350.839 325.762 340.689C330.538 330.538 332.927 318.895 332.927 305.759C332.927 292.624 330.538 280.98 325.762 270.83C320.985 260.68 313.969 252.768 304.714 247.096C295.46 241.125 284.413 238.14 271.576 238.14C259.037 238.14 247.991 241.125 238.438 247.096C229.183 252.768 222.018 260.68 216.943 270.83C211.868 280.682 209.33 292.325 209.33 305.759Z" fill="#171717"/>
</svg>
