<svg width="64" height="63" viewBox="0 0 64 63" fill="none" xmlns="http://www.w3.org/2000/svg">
<path d="M28.7581 27.442L27.9702 28.2297C27.3906 28.9773 27.0312 29.9031 27.0312 30.9201C27.0312 33.3557 29.0128 35.3372 31.4484 35.3372C33.884 35.3372 35.8655 33.3557 35.8655 30.9201C35.8655 28.4845 33.884 26.5029 31.4484 26.5029C30.4315 26.5029 29.5055 26.8623 28.7581 27.442Z" fill="#5CB0FF"/>
<path d="M31.4469 6.62564C32.6666 6.62564 33.6554 5.63683 33.6554 4.41707C33.6554 3.19731 32.6666 2.2085 31.4469 2.2085C30.2271 2.2085 29.2383 3.19731 29.2383 4.41707C29.2383 5.63683 30.2271 6.62564 31.4469 6.62564Z" fill="#5CB0FF"/>
<path d="M13.7801 14.3558C14.3899 14.3558 14.8844 13.8614 14.8844 13.2515C14.8844 12.6416 14.3899 12.1472 13.7801 12.1472C13.1702 12.1472 12.6758 12.6416 12.6758 13.2515C12.6758 13.8614 13.1702 14.3558 13.7801 14.3558Z" fill="#D0E8FF"/>
<path d="M50.2215 14.3558C50.8314 14.3558 51.3258 13.8614 51.3258 13.2515C51.3258 12.6416 50.8314 12.1472 50.2215 12.1472C49.6116 12.1472 49.1172 12.6416 49.1172 13.2515C49.1172 13.8614 49.6116 14.3558 50.2215 14.3558Z" fill="#D0E8FF"/>
<path d="M4.94295 33.1286C6.1627 33.1286 7.15152 32.1398 7.15152 30.92C7.15152 29.7002 6.1627 28.7114 4.94295 28.7114C3.72319 28.7114 2.73438 29.7002 2.73438 30.92C2.73438 32.1398 3.72319 33.1286 4.94295 33.1286Z" fill="#5CB0FF"/>
<path d="M59.0562 33.1286C60.276 33.1286 61.2648 32.1398 61.2648 30.92C61.2648 29.7002 60.276 28.7114 59.0562 28.7114C57.8365 28.7114 56.8477 29.7002 56.8477 30.92C56.8477 32.1398 57.8365 33.1286 59.0562 33.1286Z" fill="#5CB0FF"/>
<path d="M50.2215 50.7972C50.8314 50.7972 51.3258 50.3028 51.3258 49.6929C51.3258 49.083 50.8314 48.5886 50.2215 48.5886C49.6116 48.5886 49.1172 49.083 49.1172 49.6929C49.1172 50.3028 49.6116 50.7972 50.2215 50.7972Z" fill="#D0E8FF"/>
<path d="M13.7801 50.7972C14.3899 50.7972 14.8844 50.3028 14.8844 49.6929C14.8844 49.083 14.3899 48.5886 13.7801 48.5886C13.1702 48.5886 12.6758 49.083 12.6758 49.6929C12.6758 50.3028 13.1702 50.7972 13.7801 50.7972Z" fill="#D0E8FF"/>
<path d="M31.4469 60.7357C32.6666 60.7357 33.6554 59.7469 33.6554 58.5272C33.6554 57.3074 32.6666 56.3186 31.4469 56.3186C30.2271 56.3186 29.2383 57.3074 29.2383 58.5272C29.2383 59.7469 30.2271 60.7357 31.4469 60.7357Z" fill="#5CB0FF"/>
<path d="M59.0544 26.5028C57.0024 26.5028 55.2881 27.9161 54.7941 29.8157H37.9733C37.8499 29.0845 37.6135 28.3917 37.2709 27.7621L48.8008 16.2324C49.2327 16.4389 49.7103 16.5643 50.2202 16.5643C52.047 16.5643 53.533 15.0782 53.533 13.2514C53.533 11.4246 52.047 9.93857 50.2202 9.93857C48.3933 9.93857 46.9073 11.4246 46.9073 13.2514C46.9073 13.7612 47.0326 14.239 47.2393 14.6709L35.8907 26.0192C34.9734 25.1866 33.825 24.6092 32.5516 24.394V8.67736C34.4513 8.18344 35.8645 6.46934 35.8645 4.41714C35.8645 1.98156 33.8829 0 31.4473 0C29.0117 0 27.0302 1.98156 27.0302 4.41714C27.0302 6.46934 28.4434 8.18347 30.343 8.67736V24.394C29.3388 24.5636 28.4118 24.957 27.6143 25.5253L16.7597 14.6709C16.9663 14.239 17.0916 13.7612 17.0916 13.2514C17.0916 11.4246 15.6056 9.93857 13.7788 9.93857C11.9519 9.93857 10.4659 11.4246 10.4659 13.2514C10.4659 15.0782 11.9519 16.5643 13.7788 16.5643C14.2886 16.5643 14.7662 16.4389 15.1982 16.2324L26.0528 27.0868C25.4844 27.8843 25.0909 28.8115 24.9214 29.8157H9.20479C8.71087 27.9161 6.99655 26.5028 4.94448 26.5028C2.5089 26.5028 0.527344 28.4844 0.527344 30.92C0.527344 33.3556 2.5089 35.3371 4.94448 35.3371C6.99655 35.3371 8.71087 33.9239 9.20479 32.0243H24.9214C25.1364 33.2976 25.714 34.4461 26.5466 35.3635L15.1981 46.7118C14.7662 46.5053 14.2886 46.38 13.7788 46.38C11.9519 46.38 10.4659 47.866 10.4659 49.6928C10.4659 51.5196 11.9519 53.0057 13.7788 53.0057C15.6056 53.0057 17.0916 51.5196 17.0916 49.6928C17.0916 49.183 16.9663 48.7053 16.7597 48.2734L28.2896 36.7436C28.919 37.0863 29.612 37.3225 30.343 37.4459V54.2669C28.4434 54.7608 27.0302 56.4749 27.0302 58.5271C27.0302 60.9627 29.0117 62.9442 31.4473 62.9442C33.8829 62.9442 35.8645 60.9627 35.8645 58.5271C35.8645 56.4749 34.4513 54.7607 32.5516 54.2669V37.4459C33.5558 37.2763 34.4829 36.883 35.2804 36.3147L47.2393 48.2733C47.0326 48.7053 46.9073 49.183 46.9073 49.6928C46.9073 51.5196 48.3933 53.0057 50.2202 53.0057C52.047 53.0057 53.533 51.5196 53.533 49.6928C53.533 47.866 52.047 46.38 50.2202 46.38C49.7103 46.38 49.2327 46.5053 48.8008 46.7118L36.8419 34.7531C37.4102 33.9557 37.8038 33.0285 37.9733 32.0242H54.7941C55.288 33.9239 57.0024 35.3371 59.0544 35.3371C61.49 35.3371 63.4716 33.3555 63.4716 30.92C63.4716 28.4844 61.49 26.5028 59.0544 26.5028ZM50.2202 12.1471C50.8289 12.1471 51.3245 12.6427 51.3245 13.2514C51.3245 13.8602 50.8289 14.3557 50.2202 14.3557C49.6114 14.3557 49.1159 13.8602 49.1159 13.2514C49.1159 12.6427 49.6114 12.1471 50.2202 12.1471ZM35.8645 30.92C35.8645 33.3556 33.8829 35.3371 31.4473 35.3371C29.0117 35.3371 27.0302 33.3556 27.0302 30.92C27.0302 29.903 27.3895 28.9772 27.9691 28.2296L28.757 27.4419C29.5044 26.8622 30.4305 26.5028 31.4473 26.5028C33.8829 26.5028 35.8645 28.4844 35.8645 30.92ZM29.2388 4.41714C29.2388 3.19909 30.2293 2.20857 31.4473 2.20857C32.6654 2.20857 33.6559 3.19909 33.6559 4.41714C33.6559 5.63519 32.6654 6.62571 31.4473 6.62571C30.2293 6.62571 29.2388 5.63519 29.2388 4.41714ZM12.6745 13.2514C12.6745 12.6427 13.17 12.1471 13.7788 12.1471C14.3875 12.1471 14.883 12.6427 14.883 13.2514C14.883 13.8602 14.3875 14.3557 13.7788 14.3557C13.17 14.3557 12.6745 13.8602 12.6745 13.2514ZM4.94448 33.1286C3.72643 33.1286 2.73591 32.138 2.73591 30.92C2.73591 29.7019 3.72643 28.7114 4.94448 28.7114C6.16254 28.7114 7.15305 29.7019 7.15305 30.92C7.15305 32.138 6.16254 33.1286 4.94448 33.1286ZM13.7788 50.7971C13.17 50.7971 12.6745 50.3016 12.6745 49.6928C12.6745 49.0841 13.17 48.5885 13.7788 48.5885C14.3875 48.5885 14.883 49.0841 14.883 49.6928C14.883 50.3016 14.3875 50.7971 13.7788 50.7971ZM33.6559 58.5271C33.6559 59.7452 32.6654 60.7357 31.4473 60.7357C30.2293 60.7357 29.2388 59.7452 29.2388 58.5271C29.2388 57.3091 30.2293 56.3185 31.4473 56.3185C32.6654 56.3185 33.6559 57.3091 33.6559 58.5271ZM51.3245 49.6928C51.3245 50.3016 50.8289 50.7971 50.2202 50.7971C49.6114 50.7971 49.1159 50.3016 49.1159 49.6928C49.1159 49.0841 49.6114 48.5885 50.2202 48.5885C50.8289 48.5885 51.3245 49.0841 51.3245 49.6928ZM59.0544 33.1286C57.8364 33.1286 56.8459 32.138 56.8459 30.92C56.8459 29.7019 57.8364 28.7114 59.0544 28.7114C60.2725 28.7114 61.263 29.7019 61.263 30.92C61.263 32.138 60.2725 33.1286 59.0544 33.1286Z" fill="#1C71DA"/>
</svg>
