<svg width="57" height="64" viewBox="0 0 57 64" fill="none" xmlns="http://www.w3.org/2000/svg">
<path d="M49.9913 12.5678C49.9473 12.2476 49.667 12.0706 49.4353 12.0512C49.2041 12.0317 44.3102 11.6691 44.3102 11.6691C44.3102 11.6691 40.9114 8.29483 40.5385 7.92144C40.1652 7.54806 39.4363 7.66161 39.1534 7.74498C39.1115 7.75725 38.4108 7.97361 37.2512 8.33216C36.1157 5.06531 34.1122 2.06288 30.5871 2.06288C30.4899 2.06288 30.3896 2.06698 30.2894 2.0726C29.2869 0.746831 28.045 0.170898 26.9724 0.170898C18.761 0.170898 14.8379 10.4359 13.6078 15.6525C10.4171 16.6413 8.15024 17.344 7.86074 17.4351C6.07975 17.9936 6.02348 18.0499 5.78973 19.7281C5.61327 20.9986 0.953125 57.0379 0.953125 57.0379L37.2661 63.8417L56.9419 59.5851C56.9419 59.5851 50.0348 12.888 49.9913 12.5678ZM35.2442 8.95311C34.3322 9.23545 33.2954 9.55615 32.1717 9.90396C32.1727 9.6876 32.1737 9.47431 32.1737 9.24159C32.1737 7.21099 31.8919 5.57628 31.4397 4.28018C33.256 4.5083 34.4657 6.5747 35.2442 8.95311ZM29.1866 4.68271C29.6915 5.94813 30.0198 7.7639 30.0198 10.2144C30.0198 10.3397 30.0188 10.4543 30.0178 10.5704C28.0194 11.1893 25.8482 11.8614 23.6718 12.5356C24.8937 7.81966 27.1842 5.54201 29.1866 4.68271ZM26.7468 2.37336C27.1013 2.37336 27.4583 2.49356 27.8 2.72884C25.1684 3.96715 22.3475 7.08619 21.1563 13.3145C19.4152 13.8537 17.7135 14.3805 16.1402 14.8679C17.5355 10.1173 20.8489 2.37336 26.7468 2.37336Z" fill="#95BF46"/>
<path d="M49.4368 12.0511C49.2056 12.0316 44.3117 11.669 44.3117 11.669C44.3117 11.669 40.9128 8.29471 40.54 7.92133C40.4003 7.78221 40.2121 7.71111 40.0152 7.68042L37.2695 63.841L56.9433 59.585C56.9433 59.585 50.0362 12.8879 49.9927 12.5677C49.9488 12.2475 49.6685 12.0705 49.4368 12.0511Z" fill="#5E8E3E"/>
<path d="M30.5886 22.9228L28.1626 30.1393C28.1626 30.1393 26.0369 29.0049 23.4313 29.0049C19.6116 29.0049 19.4192 31.4022 19.4192 32.0063C19.4192 35.3023 28.0112 36.5651 28.0112 44.2855C28.0112 50.3594 24.1587 54.2707 18.964 54.2707C12.7305 54.2707 9.54297 50.3911 9.54297 50.3911L11.2119 44.8768C11.2119 44.8768 14.4885 47.6899 17.2536 47.6899C19.0602 47.6899 19.7952 46.2675 19.7952 45.2282C19.7952 40.9286 12.7464 40.7368 12.7464 33.6722C12.7464 27.7261 17.0142 21.9719 25.6292 21.9719C28.9487 21.9719 30.5886 22.9228 30.5886 22.9228Z" fill="white"/>
</svg>
