<svg width="64" height="64" viewBox="0 0 64 64" fill="none" xmlns="http://www.w3.org/2000/svg">
<g clip-path="url(#clip0_46_1684)">
<path d="M32 0C14.327 0 0 14.3264 0 31.9994C0 49.673 14.327 64 32 64C49.673 64 64 49.673 64 31.9994C64 14.3264 49.673 0 32 0Z" fill="#EDEDED"/>
<path d="M50.2781 17.2891L51.1914 18.203L27.0653 39.6756L24.3242 36.9345L50.2781 17.2891Z" fill="#D5D5D5"/>
<path d="M39.0397 49.2793V53.1193H35.1997V49.2793H33.9197V53.1193H30.0797V49.2793H28.7997V53.1193H24.9597V49.2793H23.6797V54.3993H40.3197V49.2793H39.0397Z" fill="#BEBEBE"/>
<path d="M30.0982 5.18016C20.3682 5.84832 11.9926 11.8048 7.86328 20.1779L11.3346 21.8778C15.0255 14.4243 22.6428 9.19744 31.3878 8.97152C31.5926 8.9664 31.7948 8.97152 31.9983 8.97152V5.12256C31.3692 5.12256 30.7369 5.136 30.0982 5.18016Z" fill="#EFC75E"/>
<path d="M55.0301 31.9922C55.0301 35.4936 54.1104 38.9509 52.671 41.9826C52.2301 42.9119 52.5609 44.0191 53.4614 44.5272L53.496 44.5464C54.4969 45.1109 55.7597 44.6962 56.2512 43.6626C57.9344 40.1215 58.8797 36.0831 58.8797 31.9922C58.8797 27.4853 57.7641 23.2421 55.8032 19.5122L52.3945 21.3004C54.0739 24.4959 55.0301 28.1317 55.0301 31.9922Z" fill="#E2574C"/>
<path d="M10.4985 44.5524L10.5331 44.5338C11.4342 44.0378 11.7645 42.955 11.3229 42.0462C9.7619 38.8327 8.83581 34.9294 8.98173 31.0996C9.11549 27.5841 10.0608 24.2638 11.6249 21.3121L8.19709 19.5137C6.5523 22.6286 5.50206 26.0993 5.20574 29.7722C4.80958 34.6798 5.75806 39.6078 7.74334 43.6884C8.23422 44.6983 9.49693 45.1047 10.4985 44.5524Z" fill="#3DB39E"/>
<path d="M32 5.12256V8.97152C41.0714 8.97216 48.919 14.2099 52.6726 21.8323L56.1235 20.135C51.7414 11.2397 42.5869 5.12448 32 5.12256Z" fill="#F4B459"/>
<path d="M48.9981 14.0889L49.9114 15.0028L27.0653 39.6754L24.3242 36.9343L48.9981 14.0889Z" fill="#324D5B"/>
<path d="M32.0008 28.7993C30.2331 28.7993 28.8008 30.2316 28.8008 31.9993C28.8008 33.767 30.2331 35.1993 32.0008 35.1993C33.7685 35.1993 35.2008 33.767 35.2008 31.9993C35.2008 30.2316 33.7685 28.7993 32.0008 28.7993Z" fill="#1E2D36"/>
</g>
<defs>
<clipPath id="clip0_46_1684">
<rect width="64" height="64" fill="white"/>
</clipPath>
</defs>
</svg>
