<svg xmlns="http://www.w3.org/2000/svg" viewBox="0 0 250 150">
    <g fill="#222323">
        <path d="M8.59 109.16h40.5c20.25 0 31.5-10.25 31.5-25.75 0-10.75-7-18.25-17.25-20.75v-0.5c7.75-2.75 13-9.75 13-18.75 0-13.25-9.75-22-28.75-22h-39v87.75zM46.84 44.91c9.5 0 14.75 4.75 14.75 12.75 0 8.25-5.25 13-14.75 13h-19.5v-25.75h19.5zM48.59 84.91c11 0 17 4.75 17 13.5 0 8.5-6 13.25-17 13.25h-21.25v-26.75h21.25z"/>
        <path d="M89.84 109.16h18.75v-35.25h39v35.25h18.75v-87.75h-18.75v35h-39v-35h-18.75v87.75z"/>
        <path d="M175.84 109.16h65.25v-17.5h-46.5v-19.25h43.25v-17.5h-43.25v-16h45.75v-17.5h-64.5v87.75z"/>
    </g>
</svg> 